<?xml version="1.0" encoding="iso-8859-1"?>
<!-- Generator: Adobe Illustrator 18.1.1, SVG Export Plug-In . SVG Version: 6.00 Build 0)  -->
<svg version="1.1" id="Capa_1" xmlns="http://www.w3.org/2000/svg" xmlns:xlink="http://www.w3.org/1999/xlink" x="0px" y="0px"
	 viewBox="0 0 30.417 30.417" style="enable-background:new 0 0 30.417 30.417;" xml:space="preserve">
<g>
	<path d="M30.278,14.808c-0.459-0.461-4.816-4.684-4.816-4.684s-0.586-0.584-0.584,0.191c0,0.773,0,2.008,0,2.008h-6.811V5.536
		c0,0,1.236,0,2.016,0.002c0.77-0.002,0.189-0.58,0.189-0.58s-4.223-4.365-4.684-4.82c-0.332-0.33-0.648,0.037-0.648,0.037
		l-4.801,4.672c0,0-0.584,0.551,0.051,0.551C10.829,5.4,12.368,5.4,12.368,5.4v6.924H5.54c0,0,0-1.234,0.002-2.01
		c-0.002-0.77-0.584-0.191-0.584-0.191S0.6,14.347,0.141,14.808c-0.336,0.33,0.033,0.646,0.033,0.646l4.672,4.801
		c0,0,0.553,0.586,0.553-0.055c0.006-0.635,0.006-2.176,0.006-2.176h6.963v6.992c0,0-1.539,0-2.18,0
		c-0.633,0-0.049,0.551-0.049,0.551l4.801,4.67c0,0,0.314,0.375,0.648,0.041c0.459-0.461,4.678-4.822,4.678-4.822
		s0.586-0.58-0.188-0.576c-0.775,0-2.012,0-2.012,0v-6.855l6.949,0.004c0,0,0,1.537,0,2.174c0,0.639,0.553,0.053,0.553,0.053
		l4.672-4.801C30.241,15.454,30.61,15.138,30.278,14.808z"/>
	<g>
	</g>
	<g>
	</g>
	<g>
	</g>
	<g>
	</g>
	<g>
	</g>
	<g>
	</g>
	<g>
	</g>
	<g>
	</g>
	<g>
	</g>
	<g>
	</g>
	<g>
	</g>
	<g>
	</g>
	<g>
	</g>
	<g>
	</g>
	<g>
	</g>
</g>
<g>
</g>
<g>
</g>
<g>
</g>
<g>
</g>
<g>
</g>
<g>
</g>
<g>
</g>
<g>
</g>
<g>
</g>
<g>
</g>
<g>
</g>
<g>
</g>
<g>
</g>
<g>
</g>
<g>
</g>
</svg>
