<?xml version="1.0" encoding="UTF-8"?>
<!-- Generator: Adobe Illustrator 13.0.2, SVG Export Plug-In . SVG Version: 6.00 Build 14948)  -->
<!DOCTYPE svg PUBLIC "-//W3C//DTD SVG 1.1//EN" "http://www.w3.org/Graphics/SVG/1.1/DTD/svg11.dtd">
<svg version="1.1" id="Powerdrainhud_xA0_Image_1_" xmlns="http://www.w3.org/2000/svg" xmlns:xlink="http://www.w3.org/1999/xlink" x="0px" y="0px" width="915px" height="912px" viewBox="0 0 915 912" enable-background="new 0 0 915 912" xml:space="preserve">
<g>
	<g>
		<path fill-rule="evenodd" clip-rule="evenodd" d="M1,0c304.672,0,609.32,0,914,0c0,303.998,0,608.007,0,912    c-305.008,0-609.981,0-915,0C0,608.993,0,306.016,0,3C-0.086,1.581-0.165,0.168,1,0z M1,4c0,302.317,0,604.677,0,907    c304.34,0,608.665,0,913,0c0-303.352,0-606.656,0-910C610.007,1,305.998,1,2,1C0.835,1.168,0.914,2.581,1,4z"/>
		<path fill-rule="evenodd" clip-rule="evenodd" fill="#FFFFFF" d="M2,1c303.998,0,608.007,0,912,0c0,303.344,0,606.648,0,910    c-304.335,0-608.66,0-913,0C1,608.677,1,306.317,1,4C0.914,2.581,0.835,1.168,2,1z M224,382    c54.584-52.084,107.916-105.416,160-160C260.95,154.045,137.944,80.725,16,15C85.886,136.787,155.516,258.815,224,382z M530,222    c52.084,54.584,105.416,107.916,160,160c67.766-123.239,141.11-246.22,207-368C774.946,83.619,652.921,153.251,530,222z M457,296    c-53.583,52.083-105.417,105.917-159,158c52.084,54.584,105.416,107.916,160,160c51.918-54.084,106.916-105.083,158-160    C562.014,402.319,512.117,346.549,457,296z M17,896c121.79-69.884,243.933-139.398,367-208    c-52.084-54.584-105.416-107.916-160-160C156.276,651.28,82.896,774.228,17,896z M689,528c-53.25,53.083-107.417,105.25-159,160    c123.631,68.365,245.275,138.727,368,208C828.708,772.954,759.313,650.022,689,528z"/>
		<path fill-rule="evenodd" clip-rule="evenodd" d="M16,15c121.944,65.725,244.95,139.045,368,207    c-52.084,54.584-105.416,107.916-160,160C155.516,258.815,85.886,136.787,16,15z"/>
		<path fill-rule="evenodd" clip-rule="evenodd" d="M616,454c-51.084,54.917-106.082,105.916-158,160    c-54.584-52.084-107.916-105.416-160-160c53.583-52.083,105.417-105.917,159-158C512.117,346.549,562.014,402.319,616,454z"/>
		<path fill-rule="evenodd" clip-rule="evenodd" d="M898,896c-122.725-69.273-244.369-139.635-368-208    c51.583-54.75,105.75-106.917,159-160C759.313,650.022,828.708,772.954,898,896z"/>
		<path fill-rule="evenodd" clip-rule="evenodd" d="M897,14c-65.89,121.78-139.234,244.761-207,368    c-54.584-52.084-107.916-105.416-160-160C652.921,153.251,774.946,83.619,897,14z"/>
		<path fill-rule="evenodd" clip-rule="evenodd" d="M224,528c54.584,52.084,107.916,105.416,160,160    C260.933,756.602,138.79,826.116,17,896C82.896,774.228,156.276,651.28,224,528z"/>
	</g>
</g>
</svg>